<svg viewBox="0 0 438.1 429.621" fill="white" width="340">
    <g id="illu-crabe" transform="translate(-213.648 2307)">
        <path id="Trac\xE9_140" data-name="Trac\xE9 140"
            d="M926.8,51.168c.82-1.024,1.982-2.673,3.364-4.109a3.916,3.916,0,0,1,2.562-1.244c3.353.12,7.152-.376,9.906,1.053,2.619,1.355,5.029,1.273,7.58,1.724a3.051,3.051,0,0,1,1.858,1.948,2.979,2.979,0,0,1-.607,2.605,3.816,3.816,0,0,1-2.947.6c-3.983-1.013-7.868-2.46-11.884-3.276-1.137-.231-2.6,1.144-3.917,1.783a12.29,12.29,0,0,0,1.443,2.628,68.69,68.69,0,0,0,4.954,4.825,15.119,15.119,0,0,0,2.392,1.531l2.272,2.739q4.217,5.08,8.432,10.16c.172.208.281.5.494.641,3.448,2.227,5.806,5.315,7.992,8.794,2.222,3.541,5.342,6.513,8.031,9.764,1.769,2.139,3.525,4.291,5.176,6.52a21.8,21.8,0,0,1,1.565,3.047c.356.686.58,1.624,1.155,1.982,4.809,2.993,6.6,8.672,10.878,12.12.292.233.3.8.478,1.2a25.194,25.194,0,0,0,6.384,8.194,10.838,10.838,0,0,1,2.594,3.382c1.461,3.283,3.892,5.6,6.642,7.754a30.7,30.7,0,0,1,3.095,3.5c2.635,2.827,5.262,5.663,7.979,8.414,2.936,2.97,5.924,5.895,8.991,8.729.745.686,1.923.879,2.857,1.386,3.135,1.7,6.153,3.67,9.415,5.07a7.818,7.818,0,0,0,5.509.4c3.9-1.674,8.665-2.671,9.091-8.382.222-2.97,1.434-5.942,1.214-8.837-.113-1.5-.627-3.172-.89-4.818a59.046,59.046,0,0,0-2.4-8.844c-1.194-3.688-2.56-7.324-3.849-10.983a10.409,10.409,0,0,0-.537-1.527c-3.208-5.9-6.454-11.78-9.653-17.686-2.517-4.644-5.12-9.25-7.428-14-2.281-4.7-4.025-9.666-6.4-14.313a115.856,115.856,0,0,0-8.146-13.925c-4.886-6.955-10.09-13.7-15.436-20.309-1.8-2.229-4.447-3.776-6.706-5.634-.07-.057-.19-.07-.231-.136C987.25,31,981.709,30.367,977.706,27.4c-2.977-2.2-7.147-2.8-10.794-4.089-.406-.145-.967,0-1.28-.224-3.26-2.363-7.016-1.441-10.6-1.672-3.339-.213-6.7-.791-10.011-.6-4.472.256-8.91,1.094-13.363,1.681l-.007,1c1.885.675,3.792,1.294,5.648,2.037,4.753,1.9,9.558,3.7,14.186,5.867,2.093.981,3.833,2.73,5.709,4.164,1.25.956,2.417,2.028,3.693,2.947,2.621,1.894,3.722,4.85,4.685,7.612,1.651,4.741,2.727,9.689,3.9,14.584.911,3.794,1.511,7.664,2.453,11.447a7.621,7.621,0,0,0,1.939,2.9,63.881,63.881,0,0,0,6.187,6.454c2.458,2.061,5.278,3.688,7.94,5.507a8.728,8.728,0,0,1,1.246.9c3.348,3.321,6.669,6.672,10.017,9.993,2.4,2.381,4.9,4.673,7.211,7.136.5.523.387,1.613.614,2.73a16.288,16.288,0,0,1-9.03-5.53c-1.962-2.2-4.223-4.137-6.359-6.18-.254-.242-.793-.433-.793-.65-.018-2.506-2.284-2.669-3.711-3.767-3.8-2.927-7.537-5.935-11.166-9.064a31.9,31.9,0,0,1-5.469-5.659c-2.9-4.157-3.93-8.982-4.628-14-.584-4.2-1.418-8.477-3.563-12.3a2.093,2.093,0,0,1-.376-.97c.12-3.366-1.926-5.79-3.443-8.511-1.738-3.119-5.1-3.409-7.7-4.909A155.124,155.124,0,0,0,936.785,29.4a39.84,39.84,0,0,0-5.586-1.6c-1.463-.41-3.122-.528-4.331-1.325-1.189-.784-2.687-2.261-2.687-3.432,0-2.039,1.846-3.008,3.919-3.355a11.82,11.82,0,0,0,2.992-1.253c.462-.224.827-.779,1.289-.856,4.68-.77,9.365-1.538,14.07-2.127.834-.1,1.774.632,2.743,1.01.46-.285,1.067-.99,1.611-.942,2.657.231,5.824-.113,7.8,1.232,2.125,1.445,4.084.639,6.01,1.235,2.789.861,5.636,1.593,8.323,2.7,4.676,1.93,9.25,4.112,13.871,6.18.48.215,1.219.231,1.441.587,2.449,3.921,6.966,5.26,10.16,8.235a12.957,12.957,0,0,1,1.273,1.341q4.642,5.77,9.252,11.56a103.66,103.66,0,0,1,6.569,8.488c3.027,4.76,5.883,9.648,8.441,14.671a109.088,109.088,0,0,1,4.18,10.665c.063.165,0,.41.1.526,4.635,5.251,5.974,12.26,9.662,18.066,3.042,4.791,5.113,10.2,7.623,15.33,1.74,3.557,3.623,7.052,5.19,10.681.856,1.98.936,4.3,1.822,6.261,1.255,2.775,2.48,5.439,1.73,8.59a2.56,2.56,0,0,0,.258,1.57c2.1,4.345.63,8.536.127,12.976-.6,5.349-3.686,7.9-7.489,10.4-1.214.8-1.3,1.4-.184,2.5.886.87,1.633,2.145-.691,2.587-.818.156-1.565,1.078-2.186,1.787-2.247,2.564-4.51,5.127-6.613,7.809-1.994,2.542-3.7,5.31-5.7,7.845-3.384,4.277-6.925,8.432-10.362,12.67-1.919,2.367-3.711,4.837-5.648,7.19-2.308,2.807-4.635,5.6-7.1,8.278-1.384,1.5-1.4,2.6-.335,4.442a147.634,147.634,0,0,1,6.678,13.218,121.531,121.531,0,0,1,4.628,11.979c1.212,3.683,2.041,7.5,2.988,11.266a7.144,7.144,0,0,1-.081,1.6c.014,2.58.122,5.163.043,7.741-.061,1.955,1.063,4.186-1.133,5.75-.177.125-.347.569-.263.7,2.08,3.287-.958,5.328-1.835,7.911a42.651,42.651,0,0,0-.931,4.784,36.755,36.755,0,0,1-12.754,21.455c-3.072,2.519-6,5.8-9.569,6.968-4.035,1.325-5.994,4.431-8.942,6.669-3.427,2.6-7.331,4.572-10.847,7.07-3.135,2.227-6.234,4.54-9.9,5.731-4.832,1.572-9.78,2.793-14.675,4.177-3.987,1.124-7.949,2.349-11.968,3.348a20.383,20.383,0,0,1-4.436.05c-2.666,2.786-6.936,2.143-10.688,3.042-4.44,1.06-8.984,1.681-13.486,2.478a8.71,8.71,0,0,1-5.224-.245c-1.443-.6-3.282-.249-4.941-.356a71.119,71.119,0,0,1-7.879-.607,144.408,144.408,0,0,1-16.764-3.525c-5.138-1.568-10.228-.675-15.33-.958-3.912-.217-7.829-.322-11.739-.571a7.835,7.835,0,0,1-2.215-.834c-.571-.233-1.164-.754-1.69-.686-6.033.782-11.232-2.014-16.623-3.885-1.438-.5-2.592-1.772-3.969-2.517-1.065-.58-2.415-.689-3.4-1.359a116.53,116.53,0,0,1-10.183-7.4c-2.66-2.27-4.764-5.176-7.292-7.616-3.264-3.149-6.878-5.949-10.033-9.2-4.945-5.088-9.63-10.43-14.43-15.658-2.571-2.8-5.53-5.333-7.632-8.445-2.542-3.758-7.068-5.783-8.586-10.394-.349-1.056-1.756-1.719-2.515-2.687q-2.436-3.1-4.687-6.348a33.1,33.1,0,0,1-3-4.9c-1.64-3.577-3.23-7.19-4.544-10.894a73.064,73.064,0,0,1-2.528-9.385c-.32-1.5.061-3.142-.116-4.692-.4-3.464-.963-6.909-1.4-10.369-.059-.469.324-.976.34-1.47.048-1.561.018-3.126.018-5.006.218-.777.573-1.917.854-3.072.838-3.5,1.348-7.122,2.549-10.5a81.727,81.727,0,0,1,5.312-11.762,31.543,31.543,0,0,1,4.9-5.938c2.358-2.533,4.6-5.285,7.344-7.324,4.712-3.5,9.757-6.547,14.7-9.728,3.441-2.216,6.9-4.417,10.443-6.452a41.379,41.379,0,0,1,4.735-1.794,86.318,86.318,0,0,1,8.278-3.5,44.976,44.976,0,0,1,7.875-1.169,75.463,75.463,0,0,1,9.34-.788c5.967.091,11.909-.236,17.921.745,2.576.421,5.138,1.232,7.68,1.713,3.973.754,7.686,2.839,11.542,4.279,3.375,1.262,6.751,2.576,10.217,3.554a2.383,2.383,0,0,0,3.183-2.653c-.365-2.995,1.518-5.086,2.333-7.594a6.826,6.826,0,0,0,.46-1.767c.145-3.949,3.389-6.008,7.1-4.345a48.759,48.759,0,0,1,5.442,3c2.759,1.688,3.609,4.336,3.8,7.435.118,1.846.335,3.955,1.325,5.378.625.9,2.775,1.044,4.214.967,1.323-.07,2.6-.9,3.91-1.375a42.462,42.462,0,0,0,11.581-6.515c3.138-2.417,5.731-6.017,10.323-5.985.9,0,1.808.161,2.712.245.07.283.143.564.213.845a30.273,30.273,0,0,0-3.056,1.633c-1.09.745-2.041,1.688-3.09,2.5a11.62,11.62,0,0,1-1.463.816c-.589.328-1.352.526-1.729,1.019-2.739,3.584-6.608,5.691-10.523,7.451-2.78,1.25-5.618,2.311-8.373,3.713-3.869,1.973-8.837-1.67-9.578-5.888a32.091,32.091,0,0,0-3.455-9.843c-.657-1.185-3.312-1.264-5.5-2-1.146,5.09-2.286,9.922-3.3,14.779-.313,1.5-.942,2.3-2.521,2.111-3.7-.446-7.415-.462-10.869-2.442-2.182-1.25-4.9-1.54-7.313-2.422-3.006-1.094-5.951-2.356-8.928-3.534a3.594,3.594,0,0,0-1.033-.263q-4.547-.357-9.1-.682c-4.9-.356-9.8-.72-14.7-1.051-.566-.039-1.429-.1-1.67.22-1.275,1.695-2.247.87-2.979-.1a16.311,16.311,0,0,1-3.081,1.019,35.72,35.72,0,0,0-9.687,2.739c-4.021,1.651-8.23,2.848-12.638,4.334-.1.458-.276,1.219-.319,1.4a81.751,81.751,0,0,0-8.237,4.121c-3.006,1.944-5.736,4.32-8.586,6.508-.143.109-.295.283-.451.29-3.666.122-5.262,3.187-7.254,5.421-3.833,4.3-8.083,8.52-10.677,13.54a43.919,43.919,0,0,0-4.673,12.763c-1.09,6.311-.165,12.48-.791,18.655-.727,7.19,1.284,13.894,3.779,20.323a52.591,52.591,0,0,0,10.658,16.29c1.633,1.781,2.748,4.032,4.309,5.892,3.516,4.186,7.041,8.38,10.81,12.337a43.08,43.08,0,0,1,5.72,7.342c1.194,1.96,3.185,3.43,4.816,5.124,1.531,1.588,3,3.244,4.615,4.739a10.187,10.187,0,0,0,2.381,1.176c.458.231,1.13.421,1.285.8,1.343,3.319,3.758,5.426,6.8,7.274,2,1.21,3.215,3.645,4.957,5.353,1.71,1.676,3.971,2.873,5.407,4.73,2.983,3.853,7.679,5.167,11.3,8.1,2.927,2.372,6.971,3.579,10.7,4.694a100.507,100.507,0,0,0,15.16,2.952c4.379.6,8.55.068,12.806.22a54.131,54.131,0,0,1,9,1.1c4.671.967,9.234,2.544,13.932,3.287,4.812.759,9.483,2.689,14.58,1.64,3.409-.7,7.084,1.058,10.457-.816,2.3,2.641,4.7-.208,7.086-.086,3.174.159,6.436-1.321,9.648-2.15,3.951-1.022,7.863-2.225,11.843-3.117,3.765-.843,7.6-1.38,11.4-2.066,2.318-.419,4.669-.732,6.93-1.361.834-.231,1.352-1.445,2.188-1.846,2.9-1.386,5.94-2.483,8.8-3.944,2.3-1.173,4.415-2.7,6.6-4.094,3.661-2.329,7.4-4.547,10.94-7.048,3.416-2.413,6.6-5.151,9.929-7.691,1.59-1.214,3.491-2.086,4.87-3.489,3.629-3.684,7.41-7.344,9.259-12.335a107.512,107.512,0,0,0,3.842-12.061,59.815,59.815,0,0,0,1.62-11.1c.215-4.393.44-8.921-.372-13.2-1.035-5.453-3.072-10.722-4.739-16.05-.786-2.51-1.713-4.977-2.589-7.46a6.265,6.265,0,0,0-.9-2.17c-2.082-2.254-3.029-5.034-4.141-7.8a13.9,13.9,0,0,0-2.94-3.928c-1.2-1.289-2.594-2.39-3.9-3.577-5.068-4.615-10.16-9.2-15.185-13.862-1.633-1.516-2.8-3.751-4.673-4.741-3.389-1.794-6.08-5.056-10.337-5.183a5.461,5.461,0,0,1-2.155-1.019c-.387-.217-.8-.874-1.035-.8-3.711,1.158-5.29-2.879-8.416-3.4a15.48,15.48,0,0,1-6.128-2.99c-4.069-2.954-8.921-2.025-13.357-3.095-3.389-.82-6.817-1.488-10.2-2.333-1.262-.315-2.682-4.035-2.125-5.3a15,15,0,0,1,1.9-3.847,14.871,14.871,0,0,0,3.491-9.447c.02-.424.836-.809,1.282-1.21-.89-1.919-1.744-3.756-2.472-5.319,2,.156,3.511,2.261,3.138,4.741-.138.927.46,1.964.777,3.151q-2.222,6.3-4.73,13.416c4.288.634,8.312,1.09,12.276,1.855a92.245,92.245,0,0,1,11.676,2.843,26.946,26.946,0,0,1,6.726,3.74,29.39,29.39,0,0,0,11.436,4.6c6.094,1.223,10.794,4.95,15.085,9.191,1.636,1.617,3,3.514,4.483,5.283.175.206.292.544.505.618,3.545,1.223,5.516,4.184,7.872,6.81,2.293,2.551,4.993,4.735,7.184,6.771,2.093-2.85,4.286-5.754,6.391-8.722s4.1-6.058,6.23-9.03c1.155-1.613,2.469-3.117,3.758-4.633,2.669-3.138,5.74-5.827,7.31-9.956.979-2.573,3.563-4.56,5.518-6.728,2.245-2.49,4.613-4.868,6.875-7.342a5.323,5.323,0,0,0,.677-1.552,9.615,9.615,0,0,0-1.633-.637c-3.846-.761-7.8-1.185-11.524-2.336-2.048-.632-3.708-2.494-5.573-3.756-1.642-1.108-3.323-2.152-4.986-3.226a7.055,7.055,0,0,1-1.105-.736c-2.941-2.814-6.187-5.387-8.717-8.534-3.64-4.522-8.613-7.754-11.624-12.908-2.134-3.654-5-6.894-7.689-10.2-2.279-2.8-4.827-5.389-7.136-8.171-2.139-2.58-4.708-5.029-6.026-8.006-1.889-4.272-5.641-6.812-8.257-10.366-2.175-2.952-4.986-5.412-6.377-8.962-.288-.736-1.162-1.248-1.781-1.851a41.057,41.057,0,0,1-7.5-9.714c-1.187-2.168-3.6-3.677-5.487-5.448-2.707-2.533-5.475-5-8.16-7.56q-4.852-4.615-9.587-9.354a5.022,5.022,0,0,1-.929-1.93c-.4-1.164-.711-2.356-1.264-4.234"
            transform="translate(-465.007 -2287.454)" fill="current"></path>
        <path id="Trac\xE9_141" data-name="Trac\xE9 141"
            d="M888.545,41.454c-14.474-5.79-14.474-5.79-15.855-9.365,2.345-.68,4.248-1.744,6.452,1.1,1.377,1.776,4.39,2.358,6.749,3.276,1.6.621,3.4.729,4.986,1.361,1.93.768,2.424,5.14.784,6.651-3.321,3.054-6.157,6.517-10.294,8.844-3.346,1.88-5.7,5.466-8.649,8.13-2.684,2.428-5.736,4.467-8.323,6.989-2.7,2.63-5.029,5.636-7.535,8.468-1.056,1.2-2.118,2.388-3.219,3.541-4.694,4.914-9.483,9.739-14.072,14.748-2.349,2.567-4.291,5.5-6.522,8.185-3.924,4.716-7.843,9.442-11.936,14.009-2.123,2.367-4.717,4.309-6.914,6.617-2.56,2.691-4.721,5.788-7.417,8.323-3.514,3.305-7.31,6.323-11.114,9.3a36.705,36.705,0,0,1-16.947,7.333c-.661.109-1.325.981-1.74,1.651a55.69,55.69,0,0,0-3.09,5.555,41.938,41.938,0,0,0-2.784,6.9c-1.115,4.207-1.849,8.513-2.848,12.752a17.876,17.876,0,0,1-1.321,2.517c-.426,1-.714,2.059-1.062,3.092l.716.308c-.723.985-1.393,2.016-2.2,2.931a1.556,1.556,0,0,1-1.323.492,1.493,1.493,0,0,1-.7-1.244,21.886,21.886,0,0,1,.8-2.843c1.031-3.688,2.012-7.39,3.09-11.064.9-3.049,2.533-6.03,2.7-9.107.22-3.867,2.68-6.515,3.831-9.818a7.66,7.66,0,0,0,.036-2.392c-.258.179-.519.358-.779.537-.888-.283-1.79-.528-2.657-.868a13.916,13.916,0,0,1-1.923-.972c-2.05-1.194-4.76-1.95-5.969-3.727-1.715-2.519-2.406-5.765-3.366-8.756a11.346,11.346,0,0,1-.594-4.177c.17-2.433,1.262-4.932.92-7.249-.886-5.99,2.394-10.862,3.686-16.25.664-2.777,1.162-5.756,2.576-8.149a51.561,51.561,0,0,0,4.637-10.609,92.657,92.657,0,0,1,4.368-10.174c1.631-3.543,3.172-7.152,5.118-10.52,3.448-5.965,7.122-11.8,10.822-17.616.689-1.081,2.118-1.667,2.9-2.712,1.035-1.389,1.706-3.045,2.666-4.5a8.605,8.605,0,0,1,1.805-1.627c.528-.439,1.527-.8,1.568-1.262.3-3.287,3.02-4.88,4.814-7.07a62.735,62.735,0,0,1,5.711-5.906c3.108-2.911,6.2-5.863,9.521-8.52,4.055-3.242,8.328-6.218,12.546-9.252.548-.4,1.4-.344,2-.689,2.019-1.153,3.921-2.526,6-3.563a43.241,43.241,0,0,1,7.759-3.3A56.265,56.265,0,0,1,866.193.211,76.533,76.533,0,0,1,881.5,2.572c2.743.8,6.237.571,8.246,3.8.908,1.461,3.208,1.984,4.648,3.2a62.687,62.687,0,0,1,5.238,5.174c1.291,1.382-.757,5.346-3.095,5.328-5.129-.041-8.966,3.255-13.515,4.662-3.654,1.13-7.188,2.675-10.72,4.168-4.615,1.948-9.236,3.9-13.733,6.1a64.592,64.592,0,0,0-6.76,4.463c1.289.07,2.392.177,3.5.181a51.268,51.268,0,0,1,6.78.032,4.992,4.992,0,0,1,3.3,2.068c.816,1.439-.328,2.573-1.667,3.484-4.186,2.841-8.359,5.709-12.392,8.76-2.043,1.547-3.693,3.6-5.668,5.256-1.593,1.33-3.43,2.363-5.106,3.6a7.609,7.609,0,0,0-1.219,1.482c-.591.748-1.178,1.5-2.034,2.589-.983-2.868.963-3.579,2.061-4.662,1.593-1.563,3.776-2.716,4.88-4.547,2.528-4.191,6.887-6.474,9.861-10.178,1.033-1.287,2.945-1.849,4.4-2.827.877-.587,1.645-1.339,2.929-2.4a13.1,13.1,0,0,0-2.254-.351c-4.279.331-8.552.772-12.836,1.017a13.023,13.023,0,0,1-3.369-.739c-.72-2.046.48-3.317,1.944-4.116,4.483-2.449,9.043-4.76,13.615-7.045,2.793-1.4,5.618-2.755,8.5-3.939,3.625-1.486,7.356-2.7,10.985-4.177,3.106-1.262,6.085-2.848,9.211-4.048,2.533-.972,5.2-1.588,8.246-2.492-1.083-1.416-1.851-3.21-3.208-4.039A99.2,99.2,0,0,0,881.516,6.8c-6.9-3.128-14.471-2.9-21.779-3.833-2.515-.319-5.294.555-7.811,1.337a122.036,122.036,0,0,0-14.67,5.238c-3.335,1.527-6.248,4.01-9.268,6.175a58.53,58.53,0,0,0-5.12,4.2c-4.762,4.313-9.628,8.527-14.154,13.076a173.206,173.206,0,0,0-12.548,13.907c-2.925,3.661-5.145,7.879-7.736,11.812-.768,1.162-1.919,2.091-2.578,3.3-2.109,3.858-4.175,7.75-6.064,11.721-2.755,5.793-5.4,11.642-7.981,17.511-1.486,3.371-2.327,7.1-4.241,10.187-2.929,4.712-3.4,9.986-4.871,15.074a39.549,39.549,0,0,0-1.287,18.723c.442,2.277,2.308,4.327,3.713,6.352,1.445,2.082,2.963,3.917,6.141,3.418a28.682,28.682,0,0,1,7.659.174c2.6.306,3.955-2.157,6.017-2.456a15.927,15.927,0,0,0,6.975-2.983c5.016-3.529,9.872-7.193,13.85-12.027,4.778-5.808,10.063-11.2,15.162-16.737,2.655-2.886,5.464-5.636,8.047-8.583,1.737-1.984,3.117-4.275,4.812-6.3,1.065-1.275,2.531-2.213,3.616-3.477,3.183-3.711,6.137-7.625,9.428-11.236,2.87-3.147,6.155-5.906,9.109-8.98,4.191-4.361,8.18-8.912,12.39-13.255,1.715-1.769,3.808-3.167,5.677-4.794,2.619-2.277,5.163-4.644,7.793-6.909,1.975-1.7,4.046-3.3,6.051-4.968a4.656,4.656,0,0,0,.7-1.006"
            transform="translate(-448.46 -2307)" fill="current"></path>
        <path id="Trac\xE9_142" data-name="Trac\xE9 142"
            d="M959.026,169.944a22.084,22.084,0,0,0-3.878-1.436c-2.814-.462-5.666-.677-8.5-1.028a19.359,19.359,0,0,1-2.338-.476c-1.4-.351-2.773-.85-4.191-1.092-4.048-.689-8.115-1.275-12.174-1.912-.439-.068-.865-.258-1.3-.285-3.065-.2-6.164-.156-9.182-.637-2.42-.383-4.7-1.561-7.111-2.093-4.687-1.031-9.456-1.7-14.12-2.827-2.8-.675-5.444-1.989-8.2-2.879a30.932,30.932,0,0,0-4.177-.809c-1.59-.279-3.194-.48-4.775-.809-4.048-.838-8.1-1.676-12.127-2.617-2.571-.6-5.079-1.466-7.65-2.05-3.471-.791-6.984-1.393-10.464-2.138-2.676-.573-5.317-1.3-7.995-1.858-1.772-.372-3.6-.464-5.362-.868-4.044-.929-8.047-2.032-12.093-2.947-3.008-.682-6.064-1.142-9.084-1.776a42.4,42.4,0,0,1-4.655-1.257c-3.385-1.119-6.735-2.349-10.119-3.466-1.344-.442-2.748-.689-4.116-1.051-3.675-.974-7.326-2.048-11.023-2.925-3.822-.906-7.7-1.556-11.526-2.46-1.984-.469-3.858-1.493-5.854-1.815a39.771,39.771,0,0,0-6.157-.068c-.585-2.771.627-4.1,3.484-3.668,5.578.845,11.182,1.525,16.73,2.528,2.012.362,3.856,1.572,5.84,2.184,2.114.65,4.3,1.042,6.459,1.563,5.5,1.33,11.023,2.58,16.494,4.026,6.522,1.722,12.974,3.72,19.512,5.383,2.938.75,6.033.868,9.012,1.486a46.759,46.759,0,0,1,5.371,1.76c.333.113.677.369.992.338,4.708-.489,8.808,2.041,13.291,2.655,2.524.344,5.052.68,7.557,1.13,1.74.315,3.448.806,5.167,1.235,4.952,1.235,9.916,2.426,14.849,3.727,5.446,1.436,11.123,2.39,16.209,4.658,3.856,1.719,7.734,1.622,11.589,2.4,2.2.446,4.359,1.115,6.552,1.624,3.335.775,6.651,1.7,10.029,2.193,4.893.7,9.839,1.026,14.75,1.606,2.721.322,5.518.086,7.99,1.948,1.167.877,2.988,1.076,4.542,1.2,2.3.186,1.923,1.572,1.76,3.6"
            transform="translate(-444.426 -2151.844)" fill="current"></path>
        <path id="Trac\xE9_143" data-name="Trac\xE9 143"
            d="M829.268,125.735c-1.83-.564-3.634-1.266-5.5-1.658-1.921-.4-3.937-.356-5.854-.77-5.473-1.183-10.908-2.544-16.376-3.747-3.228-.709-6.563-1.017-9.728-1.926-4.239-1.217-8.386-2.771-12.523-4.311-3.554-1.321-7.054-2.8-10.545-4.279a4.326,4.326,0,0,1-1.6-1.393,1.29,1.29,0,0,1,.029-1.214,1.274,1.274,0,0,1,1.144-.36c4.485,1.683,8.93,3.475,13.425,5.131,2.082.768,4.252,1.3,6.379,1.946,2.8.852,5.573,1.837,8.414,2.537s5.736,1.119,8.611,1.651c3.031.56,6.08,1.031,9.093,1.679,2.127.458,4.175,1.3,6.311,1.69q8.019,1.461,16.091,2.646c7.317,1.081,14.65,2.077,21.983,3.042,2.605.344,5.242.439,7.849.768a12.536,12.536,0,0,1,2.655.9,6.223,6.223,0,0,0,1.486.614c3.958.3,7.958.279,11.868.868,4.669.7,9.243,2,13.894,2.861,2.363.437,4.825.324,7.195.734,1.6.276,3.081,1.291,4.68,1.522,4.6.664,9.266.924,13.851,1.681,3.654.6,7.224,1.71,10.84,2.564.591.138,1.248.029,1.821.208,1.078.335,2.114.816,3.181,1.2a5.032,5.032,0,0,0,1.531.372c4.612.1,8.484,2.116,12.052,4.773.784.584,1.135,1.747,1.685,2.644-1.262.17-2.689.8-3.758.426-3.679-1.3-7.152-3.21-10.862-4.388-2.664-.845-5.6-.825-8.384-1.323-2.519-.451-5.009-1.065-7.505-1.638-2-.458-3.958-1.117-5.976-1.409-3.679-.53-7.406-.743-11.082-1.3-3.289-.5-6.529-1.307-9.8-1.919-1.853-.344-3.724-.6-5.6-.829-2.981-.369-5.972-.646-8.946-1.049a8.7,8.7,0,0,1-2.15-.834c-.489-.213-1.09-.8-1.416-.664-3.273,1.33-6.089-.632-9.1-1.146-6.833-1.167-13.653-2.4-20.493-3.518-2.476-.408-5.018-.449-7.485-.9-3.008-.553-5.972-1.359-8.955-2.055-.752-.177-1.5-.347-2.256-.521-.059.231-.12.462-.179.693"
            transform="translate(-436.456 -2172.815)" fill="current"></path>
        <path id="Trac\xE9_144" data-name="Trac\xE9 144"
            d="M768.4,134.039l-2.41.829c.4.56.754,1.047.661.915-2.972,2.093-5.824,4.128-8.7,6.123-1.88,1.3-3.81,2.53-5.691,3.833a27.763,27.763,0,0,0-3.815,2.85,85.032,85.032,0,0,0-6.273,6.76c-3.867,4.755-8.11,9.395-9.073,15.753-.358,2.354-.489,4.814,1.951,6.835,3.4,2.814,6.282,6.248,9.51,9.286a39.42,39.42,0,0,0,4.907,3.679c3.718,2.528,7.473,5,11.223,7.48,3.878,2.569,7.675,5.281,11.678,7.643,3.3,1.946,6.812,3.541,10.287,5.172,3.98,1.869,8.031,3.588,12.034,5.412,1.81.822,3.579,1.738,5.367,2.612.319.156.689.516.94.446,3.3-.927,3.022,2.458,4.445,3.758.236.215-.073,1.343-.442,1.792-.227.274-1.165.26-1.588.025a26.488,26.488,0,0,0-9.49-3.455c-2.281-.306-4.334-2.086-6.567-3.02-3.251-1.357-6.6-2.476-9.848-3.835-1.312-.548-2.426-1.547-3.706-2.2-2.589-1.314-5.323-2.367-7.82-3.835a68.691,68.691,0,0,1-6.162-4.508c-5.068-3.806-10.167-7.571-15.176-11.451-3.285-2.544-6.545-5.142-9.594-7.956a11.894,11.894,0,0,1-2.682-4.383c-1.085-2.784-1.552-5.845-2.864-8.5-1.3-2.632,1.23-3.781,1.611-5.743.5-2.544,1.989-4.9,3.129-7.308a4.688,4.688,0,0,1,1.2-1.212,18.894,18.894,0,0,0,1.794-1.6c2.676-3.14,5-6.653,8.033-9.39,3.357-3.031,7.306-5.423,11.075-7.974a49.04,49.04,0,0,1,5.956-3.394c1.86-.906,3.842-1.556,5.768-2.32l.333.874"
            transform="translate(-484.372 -2138.496)" fill="current"></path>
        <path id="Trac\xE9_145" data-name="Trac\xE9 145"
            d="M860.349,157.689c1.013-.485,1.527-.931,1.762-.813,2.585,1.287,5.163,2.6,7.659,4.046a12.946,12.946,0,0,1,3.011,2.465c2.641,2.9,5.333,5.772,7.73,8.869a137.312,137.312,0,0,1,9.761,13.658c1.554,2.619,2.01,5.956,2.653,9.032.936,4.479-2.1,7.174-4.988,9.746A60.827,60.827,0,0,1,882.3,208.8q-7.578,5.3-15.182,10.575c-1.984,1.375-4.03,2.666-5.972,4.1-2.693,1.991-5.378,4-7.945,6.148-2.009,1.681-4.162,1.781-6.971,1.187,1.047-1.606,1.719-3.244,2.9-4.318a77.45,77.45,0,0,1,6.848-5.235c3.468-2.5,6.948-5,10.482-7.405,1.9-1.3,3.962-2.349,5.87-3.636,1.962-1.323,3.815-2.811,5.731-4.2,2.476-1.8,4.916-3.654,7.467-5.339,2.517-1.663,3.781-4.316,2.734-7.136a50.823,50.823,0,0,0-3.765-8.169c-2.4-4.055-5.127-7.915-7.693-11.871a46.244,46.244,0,0,0-12.464-12.455c-1.266-.9-2.39-2-3.989-3.35"
            transform="translate(-336.207 -2108.518)" fill="current"></path>
        <path id="Trac\xE9_146" data-name="Trac\xE9 146"
            d="M865.4,148.581c3.69.757,7.772,1.538,11.828,2.444,3.636.811,7.254,1.717,10.856,2.673a14.848,14.848,0,0,1,2.845,1.312c.3.154.5.632.782.673,4.544.646,9.107,1.169,13.637,1.892,1.858.3,3.634,1.382,5.476,1.463q11.625.51,23.27.571c2.381.016,4.76-.714,7.152-.8a2.831,2.831,0,0,1,2.3,1.382c.249.995.553,2.768-1.55,2.641-2.313-.14-4.417.2-6.153,1.941-.3.306-1.024.233-1.556.265-3.061.184-6.123.4-9.188.487a14.8,14.8,0,0,1-4.191-.335c-1.869-.5-3.652-1.38-5.194.585-2.2-2.134-4.925-.557-7.365-1.042-5.194-1.035-10.083-3.586-15.581-3.185-.29.02-.589-.587-.938-.82a7.806,7.806,0,0,0-2.238-1.307c-2.478-.589-5.244-.5-7.451-1.586-4.15-2.041-8.649-2.143-12.965-3.2-2.483-.609-5.013-1.058-7.453-1.806-.809-.247-1.4-1.2-2.091-1.835a13.575,13.575,0,0,1,2.5-1.878,13.712,13.712,0,0,1,3.273-.532"
            transform="translate(-319.249 -2118.989)" fill="current"></path>
        <path id="Trac\xE9_147" data-name="Trac\xE9 147"
            d="M760.41,159.918c-1.373.034-2.46.106-3.545.077-4.322-.116-6.588-3.477-9.132-6.157-1.42-1.5-2.03-3.742-3.108-5.589-2.043-3.5-4.352-6.855-6.2-10.45-3.649-7.077-7.582-14.029-6.93-22.556a30.376,30.376,0,0,0-1.135-11.32c-1.805-5.65-1.119-11.436-2-17.1-.786-5.036-1.37-10.1-2.261-15.119-.272-1.534-2.13-3.312.446-4.1,2.181-.671,2.222,1.581,2.8,3.013,1.466,3.638,3.258,7.159,3.335,11.216.025,1.257.226,2.512.374,3.765.408,3.493.834,6.984,1.244,10.48.2,1.69.478,3.378.526,5.072.03,1.015-.453,2.041-.455,3.061,0,1,.392,1.987.485,2.99.385,4.066.326,8.223,1.173,12.185,1.067,4.993,1.552,10.178,4.859,14.582a45.711,45.711,0,0,1,6.651,11.5c1.112,3.058,3.031,5.349,4.882,7.646,1.964,2.438,4.812,4.166,8,6.807"
            transform="translate(-489.367 -2221.618)" fill="current"></path>
        <path id="Trac\xE9_148" data-name="Trac\xE9 148"
            d="M907.139,103.794c-.392,2.893-.788,5.783-1.167,8.676-.36,2.746-1.416,5.641-.879,8.2.673,3.206,0,6.175,0,9.252,0,6.984.5,13.98.22,20.95-.172,4.368-2.1,8.493-7.48,8.785-5.652.306-11.322.315-16.986.473-2.152.061-4.307.26-6.463.251a38.252,38.252,0,0,1-5.575-.4,1.906,1.906,0,0,1-1.23-1.393,1.937,1.937,0,0,1,1.158-1.5c3.953-.512,8.031-1.565,11.864-1.008,2.356.342,4.207-.424,6.112-.383,2.669.054,5.392-.179,8.087.009,3.221.222,5.772-2.614,5.775-5.87,0-1.991.811-4.252.12-5.922-1.658-4.007-.129-8.085-.927-12.138-.614-3.142.661-6.653,1.087-10a20.93,20.93,0,0,0,.251-2.4c.043-3.344-.22-6.717.143-10.022a41.293,41.293,0,0,1,2.107-8.33,2.607,2.607,0,0,1,2.234-1.284c.655.159,1.182,1.334,1.516,2.166a4.735,4.735,0,0,1-.075,1.873l.1.011"
            transform="translate(-309.184 -2180.811)" fill="current"></path>
        <path id="Trac\xE9_149" data-name="Trac\xE9 149"
            d="M865.074,153.3c1.33-2.1,4.15-2.508,6.977-.995.369.2.7.594,1.08.634,3.629.408,7.292.587,10.887,1.18,2.755.455,5.4,1.527,8.142,2.109a36.437,36.437,0,0,0,5.185.428c2.829.179,5.659.424,8.491.473a31.283,31.283,0,0,0,6.538-.328c5.956-1.164,11.757-2.567,17.314-5.441,3.131-1.62,5.969-3.6,8.973-5.349,3.7-2.157,7.376-4.37,10.876-6.826,2.947-2.068,5.516-4.68,8.472-6.733,1.559-1.083,3.591-1.486,5.407-2.2q.343.486.689.972a24.564,24.564,0,0,1-3.163,3.806c-3.436,2.775-6.993,5.407-10.588,7.976-3.2,2.286-6.513,4.417-9.789,6.6a17.4,17.4,0,0,1-2.213,1.266c-3.321,1.552-6.624,3.153-10,4.565-1.962.82-4.059,1.318-6.1,1.948a5.216,5.216,0,0,0-1.017.227,23.847,23.847,0,0,1-14.7,2.587c-1.67-.276-3.475.371-5.222.421a33.026,33.026,0,0,1-5.315-.206c-7-.924-14.079-1.552-20.948-3.094-3.4-.763-7.784.032-9.979-4.026"
            transform="translate(-312.359 -2142.18)" fill="current"></path>
        <path id="Trac\xE9_150" data-name="Trac\xE9 150"
            d="M867.53,165.171a24.525,24.525,0,0,1,3.063-.922c3.051-.46,5.874-1.772,9.224-1.257,2.071.319,4.418-1.205,6.651-1.867a6.285,6.285,0,0,1,2.288-.462c5.428.56,10.334-1.264,15.065-3.48,1.2-.566,1.985-2.336,2.646-3.7,2.313-4.78,3.987-9.959,6.88-14.34,2.34-3.55,3.473-7.72,6.785-10.885,3.056-2.92,4.687-7.288,7.208-10.831,1.5-2.1,2.089-4.941,5.009-6.058,1.047-.4,1.654-1.95,2.512-3.045,1.667,1.352,1.812,2.587.831,4.121-2.437,3.81-4.714,7.727-7.236,11.483-2.863,4.266-6.087,8.3-8.844,12.629-2.059,3.237-3.543,6.832-5.432,10.183-2.891,5.136-4.628,11.141-10.108,14.4a16.33,16.33,0,0,1-5.489,2c-3.6.614-7.283.725-10.89,1.3-3.835.616-7.6,1.654-11.442,2.259a17.125,17.125,0,0,1-4.968-.276,24.973,24.973,0,0,1-3.754-1.255"
            transform="translate(-309.251 -2169.929)" fill="current"></path>
        <path id="Trac\xE9_151" data-name="Trac\xE9 151"
            d="M781.5,153.341a21.335,21.335,0,0,1-3.43-1.423c-3.108-1.955-6.028-4.223-9.22-6.021-2.6-1.463-5.48-2.41-8.223-3.622-.729-.322-1.391-.793-2.1-1.16a45.49,45.49,0,0,0-4.161-2.061c-1.672-.655-3.607-.41-4.66-2.628-.51-1.074-2.4-1.565-3.738-2.159-2.295-1.019-4.7-1.81-6.959-2.893a20.95,20.95,0,0,1-4.662-2.875c-3.57-3.072-6.957-6.354-10.477-9.485-1.547-1.377-3.312-2.512-4.846-3.9-1.332-1.21-2.481-2.623-3.618-3.847,1.683-2.592,2.87-1.982,4.49-.471,2.372,2.213,5.079,4.064,7.6,6.123.82.671,1.4,1.656,2.268,2.238,4.288,2.884,8.987,5.274,12.863,8.624,3.989,3.45,8.932,4.515,13.343,6.844,3.765,1.987,8.049,3.2,11.422,5.679,3.942,2.9,9.193,3.926,12.02,8.371.813,1.278,1.642,2.549,2.465,3.822-.125.283-.249.564-.374.845"
            transform="translate(-501.752 -2168.452)" fill="current"></path>
        <path id="Trac\xE9_152" data-name="Trac\xE9 152"
            d="M765.573,190.109c-4.243-3.516-8.207-6.726-12.074-10.051-1.149-.988-1.948-2.372-3.029-3.455-2.784-2.791-5.931-5.283-8.366-8.346-1.749-2.2-1.96-7.29.736-10.507,2.25-2.684,4.746-5.165,7.19-7.682,2.177-2.243,4.177-4.787,6.721-6.515,3.319-2.254,5.536-6.228,9.952-6.74a10.364,10.364,0,0,1,3.618.6c.208.054.462.913.308,1.155a2.576,2.576,0,0,1-1.348,1.124,16.04,16.04,0,0,0-8.824,5.9c-1.357,1.661-3.047,3.045-4.5,4.633-3.713,4.06-7.4,8.142-11.019,12.285a1.867,1.867,0,0,0,.045,1.824c2.494,2.505,5.518,4.592,7.575,7.4,2.913,3.98,7.446,6.123,10.341,9.893,1.661,2.161,4.524,4.347,2.673,8.475"
            transform="translate(-469.613 -2133.913)" fill="current"></path>
        <path id="Trac\xE9_153" data-name="Trac\xE9 153"
            d="M773.059,139.289c-3.28,2.177-9.7.8-12.845-2.24-2.723-2.635-5.822-4.875-8.67-7.387-2.046-1.806-3.917-3.808-5.924-5.657-3.378-3.113-6.706-6.284-10.242-9.2-1.733-1.432-4.023-2.17-5.82-3.539-3.838-2.927-7.507-6.073-11.27-9.1a28.771,28.771,0,0,0-2.447-1.593c-.113-1.022-.24-2.163-.4-3.618,3.131-.156,5.4,1.695,7.748,3.319,4.293,2.965,8.708,5.774,12.815,8.98,3.659,2.857,7.023,6.1,10.416,9.279,3.652,3.423,7.145,7.014,10.788,10.446,2.177,2.05,4.574,3.867,6.755,5.913a15.545,15.545,0,0,0,7.911,3.8,5.413,5.413,0,0,1,1.185.6"
            transform="translate(-501.7 -2184.328)" fill="current"></path>
        <path id="Trac\xE9_154" data-name="Trac\xE9 154"
            d="M849.346,161.214a12.628,12.628,0,0,1,2.784,2.109,116.107,116.107,0,0,1,6.656,9.517c2.725,4.492,5.371,9.059,7.634,13.8,1.665,3.486-.8,10.355-3.686,12.906-4.281,3.79-8.269,7.911-12.512,11.746-2.485,2.245-5.192,4.254-7.879,6.264-.535.4-1.429.31-2.345.483.36-4.293,3.013-6.9,5.48-9.327,4.146-4.08,8.767-7.673,13.08-11.59a43.631,43.631,0,0,0,4.028-4.658c.263-.319.612-.979.483-1.149-1.574-2.091-.186-5.509-3.133-6.982a1.2,1.2,0,0,1-.433-.917c-.057-3.6-2.727-5.754-4.483-8.463-1.765-2.725-2.941-5.831-4.422-8.744-.7-1.375-1.506-2.691-2.265-4.032l1.013-.958"
            transform="translate(-344.088 -2103.004)" fill="current"></path>
        <path id="Trac\xE9_155" data-name="Trac\xE9 155"
            d="M744.8,115.906c-5.67-2.959-8.484-26.084-3.779-32.495,2.254,11.184,2.175,21.936,3.779,32.495"
            transform="translate(-472.339 -2201.454)" fill="current"></path>
    </g>
</svg>